<?xml version="1.0" encoding="utf-8"?>
<!-- Generator: Adobe Illustrator 24.3.0, SVG Export Plug-In . SVG Version: 6.00 Build 0)  -->
<svg version="1.1" id="Layer_1" xmlns:serif="http://www.serif.com/"
	 xmlns="http://www.w3.org/2000/svg" xmlns:xlink="http://www.w3.org/1999/xlink" x="0px" y="0px" viewBox="0 0 687 120.8"
	 style="enable-background:new 0 0 687 120.8;" xml:space="preserve">
<style type="text/css">
	.st0{fill:#FFFFFF;}
</style>
<g>
	<path class="st0" d="M35.3,26.3v65.6c0,3.7,0,7-0.1,10.1c-0.1,3-1,6.1-2.6,9.2c-1.6,3.1-4.2,5.5-7.8,7.1c-3.5,1.6-7.9,2.4-13,2.4
		c-2.9,0-6.9-0.4-11.8-1.2v-16.1c2.3,0.2,3.9,0.3,5,0.3c2.9,0,5-0.8,6.3-2.4c1.3-1.6,2-4.8,2-9.5V26.3H35.3z M35.3,0v20.7h-22V0
		H35.3z"/>
	<path class="st0" d="M111,95.7H90.2c-0.7-2.7-1-6.4-1-10.9c-3.6,4.9-7.3,8.2-10.9,9.9c-3.6,1.6-7.7,2.4-12.4,2.4
		c-6.8,0-12.3-1.8-16.5-5.3c-4.2-3.5-6.3-8.3-6.3-14.2c0-4.3,1.2-8.4,3.7-12c2.4-3.7,6.4-6.5,11.8-8.6c5.4-2.1,15.3-3.6,29.7-4.6v-4
		c0-6.7-3.5-10.1-10.6-10.1c-7.5,0-11.7,3.4-12.6,10.1l-19.8-1.8c1.3-7.9,5.2-13.5,11.8-16.8c6.5-3.3,13.9-4.9,22.2-4.9
		c5,0,9.6,0.5,14,1.6c4.4,1.1,7.8,2.7,10.2,4.9c2.5,2.2,4.1,4.5,5,7c0.9,2.4,1.3,6.7,1.3,12.8v31.5C109.7,88.7,110.2,93.1,111,95.7z
		 M88.2,62.4c-15,1.4-22.5,5.7-22.5,13c0,2.4,0.8,4.5,2.4,6.3c1.6,1.8,3.8,2.6,6.8,2.6c3.8,0,7-1.5,9.5-4.5c2.6-3,3.8-6.7,3.8-11.1
		V62.4z"/>
	<path class="st0" d="M186.1,69.6c-0.8,8.2-4.2,14.8-10.2,19.9c-6,5.1-13.7,7.6-23.2,7.6c-10.3,0-18.7-3.2-25.1-9.7
		c-6.5-6.5-9.7-15.1-9.7-26s3.3-19.7,9.9-26.4c6.6-6.8,15.4-10.1,26.5-10.1c8.9,0,16.3,2.5,22.1,7.6c5.8,5.1,9.1,11.4,9.7,19.1
		L166,52.7c-0.7-8.3-4.5-12.5-11.4-12.5c-8.5,0-12.8,6.6-12.8,19.9c0,8.8,1.2,14.4,3.6,16.8c2.4,2.4,5.3,3.6,8.7,3.6
		c6.6,0,10.6-4,11.9-12L186.1,69.6z"/>
	<path class="st0" d="M241.3,49.8L265,95.7h-23.7l-15.2-31.4l-12.6,13.8v17.6h-20.3V1.9h20.3v56.2l3.2-3.8c1.3-1.7,2.5-3.1,3.4-4.2
		l21.3-23.8h21L241.3,49.8z"/>
	<path class="st0" d="M292,95.7h-22.3V74.4H292V95.7z"/>
	<path class="st0" d="M327.5,42.2v29.3c0,3.7,0.6,6.1,1.7,7.3c1.1,1.2,3.9,1.9,8.1,1.9c2,0,4.2-0.1,6.8-0.3v15.2
		c-6.3,1-10.7,1.5-13.5,1.5c-8.9,0-15.3-1.6-19-4.9c-3.8-3.3-5.6-9.2-5.6-17.8V42.2h-11.5V26.3h12.8L309,5.8l18.5-1.4v21.8h15.7
		v15.9H327.5z"/>
	<path class="st0" d="M370.6,95.7h-20.8V26.3h19.7v12.9c3-9.6,8.3-14.4,15.7-14.4c1.1,0,2.4,0.1,3.9,0.2v20.2
		c-4.4,0-7.8,0.6-10.2,1.9c-2.4,1.3-4.4,3.6-6,6.9c-1.5,3.3-2.3,7.8-2.3,13.4V95.7z"/>
	<path class="st0" d="M468.4,27.9c-2.3-0.5-4.2-0.7-5.7-0.7c-4.8,0-7.6,2-8.4,6c3.9,3.9,5.8,8.3,5.8,13.2c0,6.5-2.9,11.8-8.6,15.7
		c-5.7,3.9-14,5.8-24.9,5.8c-3.8,0-7.6-0.3-11.3-1c-2.5,1.4-3.7,3.1-3.7,5.3c0,2.4,1,4,3.1,4.7c2.1,0.8,7,1.4,14.9,1.7
		c11.2,0.5,18.9,1.2,23.2,2c4.2,0.8,7.8,2.7,10.7,5.6c2.9,3,4.3,6.7,4.3,11.1c0,6.4-3.1,11.7-9.3,16.1c-6.2,4.4-17.1,6.6-32.9,6.6
		c-14.8,0-24.7-1.5-29.9-4.6c-5.1-3-7.7-6.9-7.7-11.6c0-6.2,4.2-10.4,12.5-12.5c-6.2-2.9-9.2-7.1-9.2-12.4c0-6.6,4.9-11.8,14.6-15.5
		c-8.6-3.4-12.9-9-12.9-16.9c0-6.4,3-11.7,8.9-15.7c5.9-4,14.2-6,24.6-6c6.6,0,13.1,1,19.3,3c0.4-3.9,1.6-7.2,3.6-9.7
		c2-2.5,6.2-3.8,12.7-3.8c2.1,0,4.1,0.2,6.1,0.5V27.9z M412.2,95.2c-0.9,0-2,0.5-3.3,1.6c-1.3,1.1-2,2.4-2,4c0,3.1,2.1,5.1,6.3,5.8
		c4.2,0.8,9.1,1.2,14.7,1.2c7.4,0,12.5-0.5,15.5-1.6c3-1.1,4.4-2.7,4.4-5.1c0-1.8-1.2-3.2-3.7-4.1c-2.5-1-9.1-1.4-19.8-1.4l-4.3,0.1
		c-2.6,0-4.4-0.1-5.3-0.2C413.6,95.3,412.8,95.2,412.2,95.2z M426.5,35.9c-3.7,0-6.6,1-8.7,2.9c-2.1,1.9-3.1,4.4-3.1,7.5
		c0,7.1,4,10.6,11.9,10.6c3.8,0,6.8-1,9-3.1c2.2-2.1,3.3-4.6,3.3-7.5c0-2.7-1-5.2-3.1-7.2C433.7,37,430.6,35.9,426.5,35.9z"/>
	<path class="st0" d="M534.1,26.3v69.4h-19.9V83.9c-3.8,8.8-10.9,13.3-21.5,13.3c-5.5,0-9.7-1-12.6-2.9c-2.9-1.9-5-4.6-6.3-8
		c-1.3-3.4-1.9-8.2-1.9-14.6V26.3h20.8v45.3c0,6.2,2.7,9.3,8.1,9.3c2.7,0,5.1-0.7,7.1-2.2c2-1.5,3.3-3.1,3.9-4.8
		c0.6-1.7,0.8-4.6,0.8-8.7V26.3H534.1z"/>
	<path class="st0" d="M567.7,95.7h-22.3V74.4h22.3V95.7z"/>
	<path class="st0" d="M599.8,95.7h-20.8V26.3h19.7v12.9c3-9.6,8.3-14.4,15.7-14.4c1.1,0,2.4,0.1,3.9,0.2v20.2
		c-4.4,0-7.8,0.6-10.2,1.9c-2.4,1.3-4.4,3.6-6,6.9c-1.5,3.3-2.3,7.8-2.3,13.4V95.7z"/>
	<path class="st0" d="M687,26.3v69.4h-19.9V83.9c-3.8,8.8-10.9,13.3-21.5,13.3c-5.5,0-9.7-1-12.6-2.9c-2.9-1.9-5-4.6-6.3-8
		c-1.3-3.4-1.9-8.2-1.9-14.6V26.3h20.8v45.3c0,6.2,2.7,9.3,8.1,9.3c2.7,0,5.1-0.7,7.1-2.2c2-1.5,3.3-3.1,3.9-4.8
		c0.6-1.7,0.8-4.6,0.8-8.7V26.3H687z"/>
</g>
</svg>
