<?xml version="1.0" encoding="utf-8"?>
<!-- Generator: Adobe Illustrator 28.0.0, SVG Export Plug-In . SVG Version: 6.00 Build 0)  -->
<svg version="1.1" id="Слой_1" xmlns="http://www.w3.org/2000/svg" xmlns:xlink="http://www.w3.org/1999/xlink" x="0px" y="0px"
	 viewBox="0 0 501.3 100" style="enable-background:new 0 0 501.3 100;" xml:space="preserve">
<style type="text/css">
	.st0{fill:#FFFFFF;}
</style>
<g>
	<polygon class="st0" points="48.2,7.2 30.6,7.2 27.7,21.8 45.4,21.8 	"/>
	<path class="st0" d="M26.9,26l-9.3,49.3c-0.5,2.8-1.3,4.9-2.2,6c-1.1,1.3-2,1.4-2.7,1.4c-1,0-1.9-0.1-2.8-0.3
		c-0.9-0.2-1.8-0.5-2.7-0.9l-1.5-0.6L1.6,93.2l1.4,0.5c1.4,0.5,3,0.8,4.9,1.2c1.8,0.3,3.9,0.4,6.1,0.5c5.9-0.1,10.7-1.9,14.3-5.3
		c3.4-3.3,5.7-8,6.8-13.9L44.6,26H26.9z"/>
	<path class="st0" d="M99.2,26H85.4l-2.6,4.9c-0.5-0.6-1.1-1.3-1.8-1.9c-1.3-1.1-2.9-2-4.8-2.8c-2-0.7-4.4-1.1-7.3-1.1
		c-4.6,0-8.9,1.4-12.7,4.1c-3.8,2.6-6.8,6.3-9.1,10.9c-2.2,4.6-3.4,10-3.4,16.2c0,4.7,0.8,8.5,2.5,11.4c1.6,3,3.8,5.3,6.5,6.7l0,0
		c2.6,1.3,5.5,2,8.6,2c0,0,0,0,0,0c2.7-0.1,5-0.5,7.1-1.2c2-0.8,3.8-1.7,5.3-2.8c0.7-0.5,1.4-1,2-1.5c0.5,1.4,1.3,2.6,2.5,3.5
		c1.7,1.3,4.1,2,7.5,2c1.1,0,2.2-0.1,3.4-0.3c1.2-0.1,2.4-0.3,3.6-0.5c1.2-0.3,2.2-0.5,2.9-0.8l0.9-0.3l2.1-12.8l-2.6,1.2
		c-0.5,0.2-1,0.4-1.6,0.6c-0.5,0.1-1.1,0.2-1.6,0.2c-0.3,0-0.4,0-0.5-0.1c-0.1-0.3-0.2-0.6-0.1-1c0.1-0.6,0.1-1.2,0.3-1.6L99.2,26z
		 M63.9,45.8c1.1-2.7,2.6-4.7,4.3-6.1c1.7-1.3,3.3-2,5.1-2c1.5,0.1,2.7,0.4,3.6,1c0.7,0.6,1.3,1.2,1.7,1.9L75,60.4
		c-0.8,0.9-1.8,1.6-2.9,2.2c-1.2,0.6-2.5,0.9-4.1,0.9c-1.6,0-3-0.5-4.1-1.6c-1.1-1.1-1.7-3.2-1.8-6.1C62.2,51.9,62.8,48.5,63.9,45.8
		z"/>
	<path class="st0" d="M131.3,56.1c0,2.4-0.6,4.2-2,5.5c-1.3,1.4-3.1,2-5.4,2c-1.9,0-3.2-0.6-4.2-1.9c-1-1.3-1.5-3.2-1.5-5.7
		c0-3.3,0.4-6.4,1.3-9.2c0.8-2.8,2.1-5,3.8-6.7c1.6-1.6,3.5-2.4,5.7-2.4c1.3,0.1,2.3,0.3,3,0.7c0.6,0.4,1.1,0.9,1.3,1.5
		c0.2,0.6,0.4,1.2,0.4,1.7c0,0.6-0.1,1.1-0.2,1.6c-0.1,0.6-0.3,1.2-0.5,1.8l-0.6,2l17.4-0.3l0.4-0.9c0.4-0.8,0.7-1.7,0.9-2.7
		c0.2-1,0.3-2.1,0.3-3.2c0.1-1.9-0.6-4.1-1.9-6.3c-1.3-2.4-3.6-4.4-6.8-6c-3.1-1.6-7.5-2.5-13-2.6c-5.1,0-9.6,0.9-13.4,2.5
		c-3.8,1.8-6.9,4.1-9.3,7c-2.4,2.9-4.3,6.3-5.4,10l0,0c-1.1,3.7-1.7,7.7-1.7,11.8c0,6.1,2.1,11,6.2,14.5c4,3.5,9.7,5.3,17,5.4
		c6.2-0.1,11.1-1,14.9-2.7c3.7-1.9,6.4-4.4,8-7.5c1.5-3,2.2-6.3,2.2-9.9v-1.5l-17.3-0.2V56.1z"/>
	<path class="st0" d="M200.4,62.8c-0.4,0.1-0.8,0.3-1.4,0.4c-1,0.2-1.9,0.3-2.4-0.1l-0.2-0.1c-0.2-0.1-0.4-0.3-0.6-0.6l-0.1-0.3
		c-0.7-1.7-1.5-3.5-2.4-5.3c-0.8-1.8-1.6-3.6-2.3-5.1c-0.5-0.9-0.8-1.7-1.2-2.3c0.8-0.8,1.7-1.9,2.9-3.2c1.7-2,3.6-4.1,5.6-6.3
		c2-2.3,3.8-4.3,5.5-6.2c2-2.2,2.8-2.9,3-3.1l0.5-0.4l0.7-4h-17.6l-0.4,0.3c-0.4,0.3-1.1,1-3,3.2c-1.3,1.5-2.8,3.3-4.5,5.3
		c-1.7,2-3.2,3.8-4.5,5.3c-1.3,1.5-2,2.3-2.5,2.8l-2.8,0.2l7.4-38.9h-17.7L149,75.4h17.7l3.8-20.2h3.3c0.3,0.4,0.7,1.2,1.2,2.4
		c0.7,1.6,1.4,3.4,2.3,5.4c0.8,2,1.5,3.9,2.1,5.6c0.3,1.2,0.9,2.3,1.7,3.4c0.8,1.3,2,2.3,3.5,3.1c1.5,0.8,3.4,1.2,5.8,1.3
		c1.7,0,3.3-0.1,4.8-0.4c1.7-0.2,3.2-0.5,4.4-1l0.8-0.3l2.5-12.9L200.4,62.8z"/>
	<path class="st0" d="M249,27.1c-2.7-1.3-5.5-2-8.4-2c0,0,0,0,0,0c-3.3,0.1-6.2,0.7-8.4,1.8c-1,0.5-1.9,1-2.7,1.6l4.6-24.2h-17.6
		l-13.8,71.1h13.7l2.5-4.3c0.4,0.5,0.9,0.9,1.4,1.4c1.1,1.1,2.7,2.1,4.6,2.7c1.9,0.7,4.3,1.1,7.1,1.2c3,0,6.1-0.6,9.2-1.9
		c3-1.2,5.9-3.1,8.5-5.6c2.6-2.6,4.7-5.9,6.2-9.9c1.5-4,2.3-8.8,2.4-14.3c-0.1-4.6-1-8.3-2.7-11.2C254,30.6,251.7,28.4,249,27.1z
		 M238.4,39.5c1.2,1.2,1.9,3.4,1.9,6.5c0,4.2-0.6,7.6-1.8,10.3c-1.2,2.5-2.7,4.4-4.5,5.6c-1.7,1.2-3.5,1.8-5.4,1.8
		c-1.4,0-2.6-0.3-3.6-0.9c-0.8-0.4-1.3-1-1.7-1.6l3.6-19.9c1-0.9,2.1-1.7,3.3-2.4c1.3-0.6,2.6-1,3.9-1.1
		C235.9,37.7,237.3,38.3,238.4,39.5z"/>
	<path class="st0" d="M312,45.3c0-4-0.9-7.6-2.7-10.5c-1.7-3.1-4.4-5.5-8-7.2c-3.5-1.7-7.9-2.6-13.2-2.6c-6.3,0.1-11.7,1.4-16.1,4.1
		c-4.3,2.7-7.6,6.4-9.7,11.2c-2.1,4.6-3.2,10-3.2,16c0,3.9,0.9,7.5,2.6,10.4c1.7,3,4.4,5.4,7.9,7.1c3.5,1.6,7.9,2.5,13.2,2.5
		c6.3-0.1,11.8-1.4,16.1-4.1c4.3-2.7,7.6-6.4,9.8-11.1C310.8,56.6,312,51.3,312,45.3z M290.9,59.3c-1.9,2.9-4.6,4.3-8.1,4.3
		c-1.9,0-3.3-0.5-4.3-1.6c-1-1.1-1.6-3.1-1.6-5.7c0-6.2,1-10.9,3-14.1c1.8-2.9,4.5-4.3,8-4.4c2,0,3.4,0.6,4.4,1.7
		c1.1,1.2,1.6,3.2,1.6,5.8C294,51.5,292.9,56.2,290.9,59.3z"/>
	<path class="st0" d="M361.2,63.1l-0.2,0c-0.9,0.3-1.9,0.4-2.8-0.2c-0.4-0.2-0.8-0.7-1.1-1.3L351,50.4l18.9-20.7l0.7-3.7h-18.4
		l-7.1,8.9c-1.1,1.4-2.2,2.7-3.2,4c-0.4,0.6-0.9,1.2-1.3,1.9c-0.1-0.4-0.2-0.8-0.3-1.2c-0.5-1.3-1-2.7-1.6-4l-1.5-3.6
		c-0.6-1.3-1.2-2.5-1.9-3.5c-0.8-1.1-1.9-2-3.3-2.6c-1.3-0.6-3-0.9-5.2-0.9c-1.8,0-3.5,0.1-5.1,0.4c-1.6,0.3-2.9,0.6-4,1l-0.9,0.3
		l-2.7,12.9l4.2-1.3c1.2-0.3,2.2-0.3,3.1,0.2c0.4,0.2,0.8,0.7,1.1,1.3l5.6,10.5l-19.2,21.6l-0.8,3.5h18.4l8-9.9c1.1-1.3,2.1-2.7,3-4
		c0.4-0.5,0.7-1.1,1.1-1.6c0.1,0.2,0.2,0.5,0.2,0.7c0.4,1.3,0.9,2.6,1.4,3.9l1.9,4.3c0.9,2.3,2.1,4.1,3.7,5.4c1.6,1.4,3.9,2.2,7,2.2
		c1.7-0.1,3.4-0.2,5-0.5c1.6-0.3,3-0.6,4.2-1l0.9-0.3l2.4-13.4l-2.7,1.4C362.1,62.8,361.7,63,361.2,63.1z"/>
	<polygon class="st0" points="365.8,75.4 385.3,75.4 388.5,57.9 369.1,57.9 	"/>
	<path class="st0" d="M434.3,27.1c-3.1-1.3-7.3-2-12.9-2.1c-5.5,0-10.2,0.7-13.9,2.1c-3.8,1.5-6.7,3.6-8.6,6.1c-2,2.7-3,5.8-3,9.2
		c0,3.7,1.4,6.8,4.2,9c2.6,2.1,6.3,3.8,11.4,4.9l6.1,1.6c1.6,0.3,2.8,0.8,3.6,1.4c0.5,0.3,0.7,0.7,0.7,1.3c0,0.6-0.2,1.4-1.5,2.1
		c-1.2,0.7-3.2,1.1-6,1.1c-3.7,0-5.1-0.7-5.6-1.1c-0.7-0.6-1-1.2-1-2c0-0.5,0-0.9,0.1-1.3c0.1-0.4,0.1-0.7,0.2-1.1l0.6-2l-16.2,0.2
		l-0.4,1c-0.3,0.8-0.5,1.6-0.7,2.5l0,0.1c-0.1,0.7-0.1,1.4-0.1,2c-0.1,2.2,0.6,4.4,1.9,6.5c1.4,2.1,3.8,3.9,7,5.4
		c3.3,1.4,7.6,2.1,13.3,2.2c6.1-0.1,11.2-0.9,15-2.4c3.8-1.6,6.7-3.7,8.4-6.4c1.8-2.7,2.7-5.7,2.6-8.9c0-3.3-1.3-6.2-3.9-8.5
		c-2.4-2.2-6.1-3.9-11-5l-6.8-1.6c-1.5-0.3-2.8-0.7-3.9-1.2c-0.5-0.2-0.9-0.6-0.9-1.7c0-0.5,0.1-1.3,1.4-2.1
		c1.2-0.7,3.2-1.1,5.9-1.2c3.2,0.1,4.4,0.7,4.8,1c0.5,0.4,1,1,1,1.5l0,0.1c0,0.4,0,0.8-0.1,1.2c0,0.3-0.1,0.6-0.3,0.9l-1,2.2
		l16.4-0.2l0.3-1.1c0.2-0.7,0.4-1.5,0.5-2.3c0.1-0.9,0.2-1.7,0.2-2.3c0.1-2-0.5-4.1-1.7-6.1C439.7,30.3,437.5,28.6,434.3,27.1z"/>
	<path class="st0" d="M492.7,63.5c-0.5,0.1-1,0.1-1.5,0.1c-0.6,0-0.8-0.2-0.9-0.2l0-0.1c-0.2-0.6-0.2-1.3-0.1-2l6.8-35.2h-17.7
		l-4.5,23.8c-1.1,5.3-2.7,9-4.5,11c-1.8,1.9-3.5,2.8-5.3,2.8c-1.1,0-2.6-0.1-3.3-0.9c-0.6-0.6-0.9-1.6-0.9-2.9c0-0.4,0-0.9,0.1-1.4
		c0.1-0.5,0.1-1.1,0.3-1.6l6-30.8h-17.7l-5.9,30.3c-0.1,0.8-0.2,1.7-0.3,2.7c-0.1,0.9-0.2,1.8-0.2,2.7c0.1,4.8,1.5,8.5,4.4,11
		c2.8,2.5,6.7,3.8,11.7,3.8c4.3-0.1,7.9-1,10.6-2.8c1.6-1,2.9-2.2,4-3.5c0.4,1.4,1.2,2.7,2.4,3.8c1.7,1.6,4.4,2.5,8,2.5
		c1.7-0.1,3.5-0.2,5.2-0.5c1.8-0.3,3.3-0.6,4.5-1l0.9-0.3l1.6-13.3l-2.6,1.6C493.7,63.1,493.3,63.3,492.7,63.5z"/>
</g>
</svg>
